 <svg width="301" height="301" viewBox="0 0 301 301" fill="none" xmlns="http://www.w3.org/2000/svg">
        <path d="M0 0H301V301H0V0Z" fill="#070717"/>
        <path d="M21.5 55.5V51H17V24H26V42H30.5V24H35V42H39.5V24H48.5V51H44V55.5H39.5V51H35V46.5H30.5V51H26V55.5H21.5Z" fill="#EAEAEA"/>
        <path d="M56.24 55.5V24H87.74V28.5H65.24V37.5H83.24V42H65.24V51H87.74V55.5H56.24Z" fill="#EAEAEA"/>
        <path d="M99.98 55.5V24H108.98V51H126.98V55.5H99.98Z" fill="#EAEAEA"/>
        <path d="M143.72 55.5V51H139.22V46.5H134.72V33H139.22V28.5H143.72V24H161.72V28.5H166.22V33H157.22V28.5H148.22V33H143.72V46.5H148.22V51H157.22V46.5H166.22V51H161.72V55.5H143.72Z" fill="#EAEAEA"/>
        <path d="M178.46 55.5V51H173.96V28.5H178.46V24H200.96V28.5H205.46V51H200.96V55.5H178.46ZM182.96 51H196.46V28.5H182.96V51Z" fill="#EAEAEA"/>
        <path d="M213.2 55.5V24H222.2V28.5H226.7V33H231.2V28.5H235.7V24H244.7V55.5H235.7V37.5H231.2V46.5H226.7V37.5H222.2V55.5H213.2Z" fill="#EAEAEA"/>
        <path d="M252.44 55.5V24H283.94V28.5H261.44V37.5H279.44V42H261.44V51H283.94V55.5H252.44Z" fill="#EAEAEA"/>
        <path d="M128.6 129.5V102.5H119.6V98H146.6V102.5H137.6V129.5H128.6Z" fill="#EAEAEA"/>
        <path d="M158.84 129.5V125H154.34V102.5H158.84V98H181.34V102.5H185.84V125H181.34V129.5H158.84ZM163.34 125H176.84V102.5H163.34V125Z" fill="#EAEAEA"/>
        <path d="M50.12 203.5V190H45.62V185.5H41.12V172H50.12V185.5H59.12V172H68.12V185.5H63.62V190H59.12V203.5H50.12Z" fill="#EAEAEA"/>
        <path d="M75.86 203.5V181H80.36V176.5H84.86V172H98.36V176.5H102.86V181H107.36V203.5H98.36V194.5H84.86V203.5H75.86ZM84.86 190H98.36V181H93.86V176.5H89.36V181H84.86V190Z" fill="#EAEAEA"/>
        <path d="M115.1 203.5V172H124.1V176.5H128.6V181H133.1V185.5H137.6V172H146.6V203.5H137.6V194.5H133.1V190H128.6V185.5H124.1V203.5H115.1Z" fill="#EAEAEA"/>
        <path d="M154.34 203.5V172H176.84V176.5H181.34V181H185.84V194.5H181.34V199H176.84V203.5H154.34ZM163.34 199H172.34V194.5H176.84V181H172.34V176.5H163.34V199Z" fill="#EAEAEA"/>
        <path d="M193.58 203.5V172H225.08V176.5H202.58V185.5H220.58V190H202.58V199H225.08V203.5H193.58Z" fill="#EAEAEA"/>
        <path d="M232.82 203.5V194.5H237.32V190H241.82V185.5H237.32V181H232.82V172H241.82V181H246.32V185.5H250.82V181H255.32V172H264.32V181H259.82V185.5H255.32V190H259.82V194.5H264.32V203.5H255.32V194.5H250.82V190H246.32V194.5H241.82V203.5H232.82Z" fill="#EAEAEA"/>
        <path d="M70.0097 277.5V250.5H61.0097V246H88.0097V250.5H79.0097V277.5H70.0097Z" fill="#EAEAEA"/>
        <path d="M95.7497 277.5V246H127.25V250.5H104.75V259.5H122.75V264H104.75V273H127.25V277.5H95.7497Z" fill="#EAEAEA"/>
        <path d="M134.99 277.5V255H139.49V250.5H143.99V246H157.49V250.5H161.99V255H166.49V277.5H157.49V268.5H143.99V277.5H134.99ZM143.99 264H157.49V255H152.99V250.5H148.49V255H143.99V264Z" fill="#EAEAEA"/>
        <path d="M174.23 277.5V246H183.23V250.5H187.73V255H192.23V250.5H196.73V246H205.73V277.5H196.73V259.5H192.23V268.5H187.73V259.5H183.23V277.5H174.23Z" fill="#EAEAEA"/>
        <path d="M217.47 268.5V246H226.47V259.5V268.5H217.47ZM217.47 277.5V273H226.47V277.5H217.47Z" fill="#EAEAEA"/>
</svg>
